<?xml version="1.0" encoding="UTF-8" standalone="no"?>
<!DOCTYPE svg PUBLIC "-//W3C//DTD SVG 20010904//EN"
              "http://www.w3.org/TR/2001/REC-SVG-20010904/DTD/svg10.dtd">

<svg xmlns="http://www.w3.org/2000/svg"
     width="10in" height="7.5in"
     viewBox="0 0 960 720">
  <path id="Auswahl"
        fill="#000000" stroke="black" stroke-width="0"
        d="M 442.00,201.00
           C 442.00,198.73 442.22,195.34 440.98,193.39
             439.54,191.13 434.46,189.02 432.00,187.55
             426.63,184.35 421.43,180.40 417.01,175.99
             403.66,162.63 394.23,142.02 394.00,123.00
             393.83,108.50 396.28,94.87 403.31,82.00
             429.94,33.22 499.33,26.50 534.19,70.00
             540.61,78.01 544.53,85.25 547.66,95.00
             549.66,101.24 552.27,114.62 551.91,121.00
             550.77,141.16 543.69,160.07 529.71,174.91
             525.42,179.47 518.37,184.62 513.00,187.94
             510.35,189.58 505.55,191.61 504.02,194.21
             502.80,196.29 503.00,199.62 503.00,202.00
             503.00,202.00 503.00,331.00 503.00,331.00
             503.00,331.00 636.00,331.00 636.00,331.00
             636.00,331.00 636.00,321.00 636.00,321.00
             636.00,321.00 646.00,321.00 646.00,321.00
             646.00,321.00 646.00,365.00 646.00,365.00
             646.00,365.00 636.00,365.00 636.00,365.00
             636.00,365.00 636.00,355.00 636.00,355.00
             636.00,355.00 503.00,355.00 503.00,355.00
             503.00,355.00 503.00,475.00 503.00,475.00
             503.00,475.00 503.00,512.00 503.00,512.00
             503.00,512.00 504.00,534.00 504.00,534.00
             504.00,534.00 524.00,531.72 524.00,531.72
             524.00,531.72 558.00,525.79 558.00,525.79
             599.60,516.93 647.16,498.07 680.00,470.72
             694.32,458.79 706.70,445.87 716.58,430.00
             719.96,424.56 723.05,418.89 725.57,413.00
             727.13,409.36 727.81,405.44 731.00,403.00
             731.00,403.00 734.72,426.00 734.72,426.00
             737.94,452.57 738.44,479.85 731.87,506.00
             729.47,515.57 723.93,533.20 717.00,540.00
             719.20,523.33 717.10,517.75 710.00,503.00
             710.00,503.00 688.00,524.92 688.00,524.92
             677.84,534.27 665.78,542.75 654.00,549.94
             628.95,565.23 610.89,569.90 585.00,580.45
             566.07,588.16 547.36,598.03 530.00,608.81
             513.83,618.86 499.16,631.26 486.04,645.00
             486.04,645.00 472.00,662.00 472.00,662.00
             448.29,626.76 407.49,601.16 369.00,584.42
             340.59,572.07 320.17,567.45 292.00,550.55
             276.42,541.21 263.88,531.88 251.00,519.00
             251.00,519.00 241.28,509.01 241.28,509.01
             240.03,507.64 238.11,505.04 236.06,505.04
             233.11,505.04 230.92,510.69 230.09,513.00
             228.62,517.09 227.18,525.65 227.02,530.00
             226.93,533.45 227.94,536.68 227.02,540.00
             210.69,511.65 207.95,485.99 208.00,454.00
             208.00,454.00 210.84,423.00 210.84,423.00
             211.48,416.96 211.94,408.23 215.00,403.00
             215.00,403.00 224.78,424.00 224.78,424.00
             229.41,432.72 238.36,444.77 245.09,452.00
             281.89,491.52 337.60,516.01 390.00,526.55
             390.00,526.55 442.00,534.00 442.00,534.00
             442.00,534.00 442.00,355.00 442.00,355.00
             442.00,355.00 312.00,355.00 312.00,355.00
             312.00,355.00 312.00,366.00 312.00,366.00
             312.00,366.00 302.00,366.00 302.00,366.00
             302.00,366.00 302.00,321.00 302.00,321.00
             302.00,321.00 312.00,321.00 312.00,321.00
             312.00,321.00 312.00,331.00 312.00,331.00
             312.00,331.00 442.00,331.00 442.00,331.00
             442.00,331.00 442.00,201.00 442.00,201.00 Z
           M 436.90,103.00
           C 425.68,127.38 442.04,158.66 470.00,159.00
             477.94,159.09 483.75,159.01 491.00,155.10
             495.72,152.55 500.14,149.20 503.48,145.00
             524.82,118.19 505.12,79.57 471.00,80.32
             455.58,82.34 443.76,88.10 436.90,103.00 Z
           M 392.40,314.40
           C 390.39,316.42 385.70,316.01 383.00,316.00
             383.00,316.00 372.00,315.05 372.00,315.05
             372.00,315.05 359.00,315.05 359.00,315.05
             359.00,315.05 343.00,316.00 343.00,316.00
             340.72,316.00 332.15,316.29 335.08,311.49
             336.27,309.54 339.41,309.24 340.98,306.73
             342.21,304.74 342.00,301.30 342.00,299.00
             342.00,299.00 342.00,252.00 342.00,252.00
             341.99,248.86 342.28,245.83 340.40,243.10
             338.43,240.24 334.63,238.86 334.63,236.04
             334.63,232.91 338.87,233.04 341.00,233.00
             341.00,233.00 353.00,233.00 353.00,233.00
             355.85,233.00 363.28,231.75 364.26,235.14
             365.41,239.16 359.52,239.74 357.60,241.72
             355.65,243.73 356.01,247.38 356.00,250.00
             356.00,250.00 356.00,295.00 356.00,295.00
             356.01,297.99 355.72,301.31 357.60,303.86
             361.87,309.65 376.51,308.85 382.00,305.28
             388.81,300.84 386.70,296.69 395.00,296.00
             394.99,299.39 394.50,312.31 392.40,314.40 Z
           M 566.74,303.89
           C 568.81,308.74 577.91,309.12 575.60,313.44
             574.45,315.59 568.18,314.98 566.00,315.00
             566.00,315.00 554.00,315.99 554.00,315.99
             551.68,316.04 545.63,316.54 545.63,312.98
             545.63,310.25 549.28,309.49 551.26,306.78
             553.16,304.18 552.98,301.05 553.00,298.00
             553.00,298.00 553.00,252.00 553.00,252.00
             552.95,248.60 552.94,245.96 550.57,243.22
             548.26,240.56 542.40,238.75 544.17,235.45
             545.23,233.47 548.16,233.81 550.00,233.96
             550.00,233.96 554.00,233.96 554.00,233.96
             554.00,233.96 564.00,233.96 564.00,233.96
             566.15,233.97 577.44,232.47 574.83,237.75
             573.50,240.45 569.21,240.04 567.17,243.28
             565.78,245.50 566.00,249.41 566.00,252.00
             566.00,252.00 566.00,270.00 566.00,270.00
             566.00,270.00 586.00,251.96 586.00,251.96
             587.69,250.34 592.07,246.23 592.66,244.10
             593.63,240.61 588.42,239.54 589.05,236.25
             589.51,233.83 593.19,234.03 595.00,234.00
             595.00,234.00 618.00,234.00 618.00,234.00
             618.00,234.00 619.00,239.00 619.00,239.00
             619.00,239.00 609.00,244.07 609.00,244.07
             609.00,244.07 574.00,272.00 574.00,272.00
             574.00,272.00 609.00,302.83 609.00,302.83
             617.76,309.94 621.68,307.13 623.00,315.00
             623.00,315.00 598.00,316.00 598.00,316.00
             592.80,315.90 588.44,313.73 595.00,310.00
             592.97,304.04 589.35,301.35 585.00,297.00
             585.00,297.00 566.00,278.00 566.00,278.00
             566.00,282.54 565.46,300.90 566.74,303.89 Z
           M 618.07,403.39
           C 619.88,405.89 619.96,410.02 620.00,413.00
             620.04,416.57 620.85,423.52 615.09,422.58
             611.62,422.02 610.60,417.69 609.10,415.00
             606.80,410.89 604.26,407.98 600.00,405.84
             597.00,404.33 593.33,403.74 590.00,403.51
             569.12,402.09 557.58,420.00 558.01,439.00
             558.44,457.67 573.17,475.42 593.00,473.67
             600.25,473.04 605.12,469.78 609.45,464.00
             611.24,461.60 612.82,457.42 615.22,456.03
             620.37,453.03 622.18,457.75 621.83,462.00
             621.55,465.37 620.55,470.23 618.49,472.95
             612.19,481.25 594.51,481.11 585.00,481.00
             566.41,480.78 548.39,468.48 543.90,450.00
             542.81,445.51 542.95,441.57 543.00,437.00
             543.09,429.96 544.81,423.06 548.48,417.00
             554.53,406.99 566.42,398.55 578.00,396.46
             578.00,396.46 591.00,395.71 591.00,395.71
             598.05,395.86 613.68,397.33 618.07,403.39 Z
           M 343.18,409.56
           C 338.05,413.89 336.77,422.34 332.25,421.04
             329.97,420.38 330.27,417.80 330.44,415.98
             330.75,412.80 331.50,399.81 333.57,398.05
             336.39,395.95 350.67,397.99 355.00,398.05
             355.00,398.05 387.00,398.05 387.00,398.05
             391.44,397.98 405.38,395.71 408.42,398.05
             410.83,399.86 410.96,406.17 410.95,409.00
             410.95,409.00 410.95,414.00 410.95,414.00
             410.95,414.00 410.95,416.94 410.95,416.94
             410.33,420.01 408.21,421.64 405.49,419.38
             402.88,417.22 402.18,411.22 396.96,407.73
             393.54,405.45 381.77,403.43 378.60,406.60
             376.68,408.52 377.01,412.46 377.00,415.00
             377.00,415.00 377.00,459.00 377.00,459.00
             377.02,462.56 376.91,467.62 379.56,470.35
             382.71,473.62 390.56,473.48 389.12,477.76
             388.05,480.91 379.76,480.02 377.00,479.99
             377.00,479.99 363.00,479.99 363.00,479.99
             360.58,480.03 353.63,480.72 353.63,476.99
             353.63,473.62 358.64,473.53 361.43,470.58
             364.29,467.57 363.99,463.83 364.00,460.00
             364.00,460.00 364.00,405.00 364.00,405.00
             356.97,405.00 348.92,404.72 343.18,409.56 Z" />
</svg>
